<?xml version="1.0" encoding="utf-8" standalone="no"?>
<!DOCTYPE svg PUBLIC "-//W3C//DTD SVG 1.1//EN"
  "http://www.w3.org/Graphics/SVG/1.1/DTD/svg11.dtd">
<svg xmlns:xlink="http://www.w3.org/1999/xlink" width="414.46375pt" height="310.890125pt" viewBox="0 0 414.46375 310.890125" xmlns="http://www.w3.org/2000/svg" version="1.1">
 <metadata>
  <rdf:RDF xmlns:dc="http://purl.org/dc/elements/1.1/" xmlns:cc="http://creativecommons.org/ns#" xmlns:rdf="http://www.w3.org/1999/02/22-rdf-syntax-ns#">
   <cc:Work>
    <dc:type rdf:resource="http://purl.org/dc/dcmitype/StillImage"/>
    <dc:date>2022-12-09T15:05:11.690000</dc:date>
    <dc:format>image/svg+xml</dc:format>
    <dc:creator>
     <cc:Agent>
      <dc:title>Matplotlib v3.6.2, https://matplotlib.org/</dc:title>
     </cc:Agent>
    </dc:creator>
   </cc:Work>
  </rdf:RDF>
 </metadata>
 <defs>
  <style type="text/css">*{stroke-linejoin: round; stroke-linecap: butt}</style>
 </defs>
 <g id="figure_1">
  <g id="patch_1">
   <path d="M 0 310.890125 
L 414.46375 310.890125 
L 414.46375 0 
L 0 0 
L 0 310.890125 
z
" style="fill: none"/>
  </g>
  <g id="axes_1">
   <g id="patch_2">
    <path d="M 50.14375 273.312 
L 407.26375 273.312 
L 407.26375 7.2 
L 50.14375 7.2 
L 50.14375 273.312 
z
" style="fill: none"/>
   </g>
   <g id="matplotlib.axis_1">
    <g id="xtick_1">
     <g id="line2d_1">
      <defs>
       <path id="mc66fe064b0" d="M 0 0 
L 0 3.5 
" style="stroke: #000000; stroke-width: 0.8"/>
      </defs>
      <g>
       <use xlink:href="#mc66fe064b0" x="66.376477" y="273.312" style="stroke: #000000; stroke-width: 0.8"/>
      </g>
     </g>
     <g id="text_1">
      <!-- 0.68 -->
      <g transform="translate(55.243665 287.910437) scale(0.1 -0.1)">
       <defs>
        <path id="DejaVuSans-30" d="M 2034 4250 
Q 1547 4250 1301 3770 
Q 1056 3291 1056 2328 
Q 1056 1369 1301 889 
Q 1547 409 2034 409 
Q 2525 409 2770 889 
Q 3016 1369 3016 2328 
Q 3016 3291 2770 3770 
Q 2525 4250 2034 4250 
z
M 2034 4750 
Q 2819 4750 3233 4129 
Q 3647 3509 3647 2328 
Q 3647 1150 3233 529 
Q 2819 -91 2034 -91 
Q 1250 -91 836 529 
Q 422 1150 422 2328 
Q 422 3509 836 4129 
Q 1250 4750 2034 4750 
z
" transform="scale(0.015625)"/>
        <path id="DejaVuSans-2e" d="M 684 794 
L 1344 794 
L 1344 0 
L 684 0 
L 684 794 
z
" transform="scale(0.015625)"/>
        <path id="DejaVuSans-36" d="M 2113 2584 
Q 1688 2584 1439 2293 
Q 1191 2003 1191 1497 
Q 1191 994 1439 701 
Q 1688 409 2113 409 
Q 2538 409 2786 701 
Q 3034 994 3034 1497 
Q 3034 2003 2786 2293 
Q 2538 2584 2113 2584 
z
M 3366 4563 
L 3366 3988 
Q 3128 4100 2886 4159 
Q 2644 4219 2406 4219 
Q 1781 4219 1451 3797 
Q 1122 3375 1075 2522 
Q 1259 2794 1537 2939 
Q 1816 3084 2150 3084 
Q 2853 3084 3261 2657 
Q 3669 2231 3669 1497 
Q 3669 778 3244 343 
Q 2819 -91 2113 -91 
Q 1303 -91 875 529 
Q 447 1150 447 2328 
Q 447 3434 972 4092 
Q 1497 4750 2381 4750 
Q 2619 4750 2861 4703 
Q 3103 4656 3366 4563 
z
" transform="scale(0.015625)"/>
        <path id="DejaVuSans-38" d="M 2034 2216 
Q 1584 2216 1326 1975 
Q 1069 1734 1069 1313 
Q 1069 891 1326 650 
Q 1584 409 2034 409 
Q 2484 409 2743 651 
Q 3003 894 3003 1313 
Q 3003 1734 2745 1975 
Q 2488 2216 2034 2216 
z
M 1403 2484 
Q 997 2584 770 2862 
Q 544 3141 544 3541 
Q 544 4100 942 4425 
Q 1341 4750 2034 4750 
Q 2731 4750 3128 4425 
Q 3525 4100 3525 3541 
Q 3525 3141 3298 2862 
Q 3072 2584 2669 2484 
Q 3125 2378 3379 2068 
Q 3634 1759 3634 1313 
Q 3634 634 3220 271 
Q 2806 -91 2034 -91 
Q 1263 -91 848 271 
Q 434 634 434 1313 
Q 434 1759 690 2068 
Q 947 2378 1403 2484 
z
M 1172 3481 
Q 1172 3119 1398 2916 
Q 1625 2713 2034 2713 
Q 2441 2713 2670 2916 
Q 2900 3119 2900 3481 
Q 2900 3844 2670 4047 
Q 2441 4250 2034 4250 
Q 1625 4250 1398 4047 
Q 1172 3844 1172 3481 
z
" transform="scale(0.015625)"/>
       </defs>
       <use xlink:href="#DejaVuSans-30"/>
       <use xlink:href="#DejaVuSans-2e" x="63.623047"/>
       <use xlink:href="#DejaVuSans-36" x="95.410156"/>
       <use xlink:href="#DejaVuSans-38" x="159.033203"/>
      </g>
     </g>
    </g>
    <g id="xtick_2">
     <g id="line2d_2">
      <g>
       <use xlink:href="#mc66fe064b0" x="120.485568" y="273.312" style="stroke: #000000; stroke-width: 0.8"/>
      </g>
     </g>
     <g id="text_2">
      <!-- 0.70 -->
      <g transform="translate(109.352756 287.910437) scale(0.1 -0.1)">
       <defs>
        <path id="DejaVuSans-37" d="M 525 4666 
L 3525 4666 
L 3525 4397 
L 1831 0 
L 1172 0 
L 2766 4134 
L 525 4134 
L 525 4666 
z
" transform="scale(0.015625)"/>
       </defs>
       <use xlink:href="#DejaVuSans-30"/>
       <use xlink:href="#DejaVuSans-2e" x="63.623047"/>
       <use xlink:href="#DejaVuSans-37" x="95.410156"/>
       <use xlink:href="#DejaVuSans-30" x="159.033203"/>
      </g>
     </g>
    </g>
    <g id="xtick_3">
     <g id="line2d_3">
      <g>
       <use xlink:href="#mc66fe064b0" x="174.594659" y="273.312" style="stroke: #000000; stroke-width: 0.8"/>
      </g>
     </g>
     <g id="text_3">
      <!-- 0.72 -->
      <g transform="translate(163.461847 287.910437) scale(0.1 -0.1)">
       <defs>
        <path id="DejaVuSans-32" d="M 1228 531 
L 3431 531 
L 3431 0 
L 469 0 
L 469 531 
Q 828 903 1448 1529 
Q 2069 2156 2228 2338 
Q 2531 2678 2651 2914 
Q 2772 3150 2772 3378 
Q 2772 3750 2511 3984 
Q 2250 4219 1831 4219 
Q 1534 4219 1204 4116 
Q 875 4013 500 3803 
L 500 4441 
Q 881 4594 1212 4672 
Q 1544 4750 1819 4750 
Q 2544 4750 2975 4387 
Q 3406 4025 3406 3419 
Q 3406 3131 3298 2873 
Q 3191 2616 2906 2266 
Q 2828 2175 2409 1742 
Q 1991 1309 1228 531 
z
" transform="scale(0.015625)"/>
       </defs>
       <use xlink:href="#DejaVuSans-30"/>
       <use xlink:href="#DejaVuSans-2e" x="63.623047"/>
       <use xlink:href="#DejaVuSans-37" x="95.410156"/>
       <use xlink:href="#DejaVuSans-32" x="159.033203"/>
      </g>
     </g>
    </g>
    <g id="xtick_4">
     <g id="line2d_4">
      <g>
       <use xlink:href="#mc66fe064b0" x="228.70375" y="273.312" style="stroke: #000000; stroke-width: 0.8"/>
      </g>
     </g>
     <g id="text_4">
      <!-- 0.74 -->
      <g transform="translate(217.570937 287.910437) scale(0.1 -0.1)">
       <defs>
        <path id="DejaVuSans-34" d="M 2419 4116 
L 825 1625 
L 2419 1625 
L 2419 4116 
z
M 2253 4666 
L 3047 4666 
L 3047 1625 
L 3713 1625 
L 3713 1100 
L 3047 1100 
L 3047 0 
L 2419 0 
L 2419 1100 
L 313 1100 
L 313 1709 
L 2253 4666 
z
" transform="scale(0.015625)"/>
       </defs>
       <use xlink:href="#DejaVuSans-30"/>
       <use xlink:href="#DejaVuSans-2e" x="63.623047"/>
       <use xlink:href="#DejaVuSans-37" x="95.410156"/>
       <use xlink:href="#DejaVuSans-34" x="159.033203"/>
      </g>
     </g>
    </g>
    <g id="xtick_5">
     <g id="line2d_5">
      <g>
       <use xlink:href="#mc66fe064b0" x="282.812841" y="273.312" style="stroke: #000000; stroke-width: 0.8"/>
      </g>
     </g>
     <g id="text_5">
      <!-- 0.76 -->
      <g transform="translate(271.680028 287.910437) scale(0.1 -0.1)">
       <use xlink:href="#DejaVuSans-30"/>
       <use xlink:href="#DejaVuSans-2e" x="63.623047"/>
       <use xlink:href="#DejaVuSans-37" x="95.410156"/>
       <use xlink:href="#DejaVuSans-36" x="159.033203"/>
      </g>
     </g>
    </g>
    <g id="xtick_6">
     <g id="line2d_6">
      <g>
       <use xlink:href="#mc66fe064b0" x="336.921932" y="273.312" style="stroke: #000000; stroke-width: 0.8"/>
      </g>
     </g>
     <g id="text_6">
      <!-- 0.78 -->
      <g transform="translate(325.789119 287.910437) scale(0.1 -0.1)">
       <use xlink:href="#DejaVuSans-30"/>
       <use xlink:href="#DejaVuSans-2e" x="63.623047"/>
       <use xlink:href="#DejaVuSans-37" x="95.410156"/>
       <use xlink:href="#DejaVuSans-38" x="159.033203"/>
      </g>
     </g>
    </g>
    <g id="xtick_7">
     <g id="line2d_7">
      <g>
       <use xlink:href="#mc66fe064b0" x="391.031023" y="273.312" style="stroke: #000000; stroke-width: 0.8"/>
      </g>
     </g>
     <g id="text_7">
      <!-- 0.80 -->
      <g transform="translate(379.89821 287.910437) scale(0.1 -0.1)">
       <use xlink:href="#DejaVuSans-30"/>
       <use xlink:href="#DejaVuSans-2e" x="63.623047"/>
       <use xlink:href="#DejaVuSans-38" x="95.410156"/>
       <use xlink:href="#DejaVuSans-30" x="159.033203"/>
      </g>
     </g>
    </g>
    <g id="text_8">
     <!-- $\phi$ -->
     <g transform="translate(225.40375 301.590125) scale(0.1 -0.1)">
      <defs>
       <path id="DejaVuSans-Oblique-3d5" d="M 2991 4863 
L 2738 3572 
Q 3363 3572 3684 3094 
Q 4016 2606 3850 1747 
Q 3681 888 3159 400 
Q 2653 -78 2028 -78 
L 1784 -1331 
L 1213 -1331 
L 1456 -78 
Q 834 -78 509 400 
Q 178 888 347 1747 
Q 513 2606 1034 3094 
Q 1544 3572 2166 3572 
L 2419 4863 
L 2991 4863 
z
M 2128 434 
Q 2481 434 2784 756 
Q 3116 1116 3244 1747 
Q 3369 2372 3169 2738 
Q 2991 3059 2638 3059 
L 2128 434 
z
M 1556 434 
L 2066 3059 
Q 1716 3059 1413 2738 
Q 1072 2372 953 1747 
Q 834 1116 1028 756 
Q 1203 434 1556 434 
z
" transform="scale(0.015625)"/>
      </defs>
      <use xlink:href="#DejaVuSans-Oblique-3d5" transform="translate(0 0.015625)"/>
     </g>
    </g>
   </g>
   <g id="matplotlib.axis_2">
    <g id="ytick_1">
     <g id="line2d_8">
      <defs>
       <path id="m808d0a26c5" d="M 0 0 
L -3.5 0 
" style="stroke: #000000; stroke-width: 0.8"/>
      </defs>
      <g>
       <use xlink:href="#m808d0a26c5" x="50.14375" y="240.971189" style="stroke: #000000; stroke-width: 0.8"/>
      </g>
     </g>
     <g id="text_9">
      <!-- 0.05 -->
      <g transform="translate(20.878125 244.770408) scale(0.1 -0.1)">
       <defs>
        <path id="DejaVuSans-35" d="M 691 4666 
L 3169 4666 
L 3169 4134 
L 1269 4134 
L 1269 2991 
Q 1406 3038 1543 3061 
Q 1681 3084 1819 3084 
Q 2600 3084 3056 2656 
Q 3513 2228 3513 1497 
Q 3513 744 3044 326 
Q 2575 -91 1722 -91 
Q 1428 -91 1123 -41 
Q 819 9 494 109 
L 494 744 
Q 775 591 1075 516 
Q 1375 441 1709 441 
Q 2250 441 2565 725 
Q 2881 1009 2881 1497 
Q 2881 1984 2565 2268 
Q 2250 2553 1709 2553 
Q 1456 2553 1204 2497 
Q 953 2441 691 2322 
L 691 4666 
z
" transform="scale(0.015625)"/>
       </defs>
       <use xlink:href="#DejaVuSans-30"/>
       <use xlink:href="#DejaVuSans-2e" x="63.623047"/>
       <use xlink:href="#DejaVuSans-30" x="95.410156"/>
       <use xlink:href="#DejaVuSans-35" x="159.033203"/>
      </g>
     </g>
    </g>
    <g id="ytick_2">
     <g id="line2d_9">
      <g>
       <use xlink:href="#m808d0a26c5" x="50.14375" y="197.04857" style="stroke: #000000; stroke-width: 0.8"/>
      </g>
     </g>
     <g id="text_10">
      <!-- 0.10 -->
      <g transform="translate(20.878125 200.847789) scale(0.1 -0.1)">
       <defs>
        <path id="DejaVuSans-31" d="M 794 531 
L 1825 531 
L 1825 4091 
L 703 3866 
L 703 4441 
L 1819 4666 
L 2450 4666 
L 2450 531 
L 3481 531 
L 3481 0 
L 794 0 
L 794 531 
z
" transform="scale(0.015625)"/>
       </defs>
       <use xlink:href="#DejaVuSans-30"/>
       <use xlink:href="#DejaVuSans-2e" x="63.623047"/>
       <use xlink:href="#DejaVuSans-31" x="95.410156"/>
       <use xlink:href="#DejaVuSans-30" x="159.033203"/>
      </g>
     </g>
    </g>
    <g id="ytick_3">
     <g id="line2d_10">
      <g>
       <use xlink:href="#m808d0a26c5" x="50.14375" y="153.125951" style="stroke: #000000; stroke-width: 0.8"/>
      </g>
     </g>
     <g id="text_11">
      <!-- 0.15 -->
      <g transform="translate(20.878125 156.92517) scale(0.1 -0.1)">
       <use xlink:href="#DejaVuSans-30"/>
       <use xlink:href="#DejaVuSans-2e" x="63.623047"/>
       <use xlink:href="#DejaVuSans-31" x="95.410156"/>
       <use xlink:href="#DejaVuSans-35" x="159.033203"/>
      </g>
     </g>
    </g>
    <g id="ytick_4">
     <g id="line2d_11">
      <g>
       <use xlink:href="#m808d0a26c5" x="50.14375" y="109.203332" style="stroke: #000000; stroke-width: 0.8"/>
      </g>
     </g>
     <g id="text_12">
      <!-- 0.20 -->
      <g transform="translate(20.878125 113.00255) scale(0.1 -0.1)">
       <use xlink:href="#DejaVuSans-30"/>
       <use xlink:href="#DejaVuSans-2e" x="63.623047"/>
       <use xlink:href="#DejaVuSans-32" x="95.410156"/>
       <use xlink:href="#DejaVuSans-30" x="159.033203"/>
      </g>
     </g>
    </g>
    <g id="ytick_5">
     <g id="line2d_12">
      <g>
       <use xlink:href="#m808d0a26c5" x="50.14375" y="65.280712" style="stroke: #000000; stroke-width: 0.8"/>
      </g>
     </g>
     <g id="text_13">
      <!-- 0.25 -->
      <g transform="translate(20.878125 69.079931) scale(0.1 -0.1)">
       <use xlink:href="#DejaVuSans-30"/>
       <use xlink:href="#DejaVuSans-2e" x="63.623047"/>
       <use xlink:href="#DejaVuSans-32" x="95.410156"/>
       <use xlink:href="#DejaVuSans-35" x="159.033203"/>
      </g>
     </g>
    </g>
    <g id="ytick_6">
     <g id="line2d_13">
      <g>
       <use xlink:href="#m808d0a26c5" x="50.14375" y="21.358093" style="stroke: #000000; stroke-width: 0.8"/>
      </g>
     </g>
     <g id="text_14">
      <!-- 0.30 -->
      <g transform="translate(20.878125 25.157312) scale(0.1 -0.1)">
       <defs>
        <path id="DejaVuSans-33" d="M 2597 2516 
Q 3050 2419 3304 2112 
Q 3559 1806 3559 1356 
Q 3559 666 3084 287 
Q 2609 -91 1734 -91 
Q 1441 -91 1130 -33 
Q 819 25 488 141 
L 488 750 
Q 750 597 1062 519 
Q 1375 441 1716 441 
Q 2309 441 2620 675 
Q 2931 909 2931 1356 
Q 2931 1769 2642 2001 
Q 2353 2234 1838 2234 
L 1294 2234 
L 1294 2753 
L 1863 2753 
Q 2328 2753 2575 2939 
Q 2822 3125 2822 3475 
Q 2822 3834 2567 4026 
Q 2313 4219 1838 4219 
Q 1578 4219 1281 4162 
Q 984 4106 628 3988 
L 628 4550 
Q 988 4650 1302 4700 
Q 1616 4750 1894 4750 
Q 2613 4750 3031 4423 
Q 3450 4097 3450 3541 
Q 3450 3153 3228 2886 
Q 3006 2619 2597 2516 
z
" transform="scale(0.015625)"/>
       </defs>
       <use xlink:href="#DejaVuSans-30"/>
       <use xlink:href="#DejaVuSans-2e" x="63.623047"/>
       <use xlink:href="#DejaVuSans-33" x="95.410156"/>
       <use xlink:href="#DejaVuSans-30" x="159.033203"/>
      </g>
     </g>
    </g>
    <g id="text_15">
     <!-- shift factors -->
     <g transform="translate(14.798438 169.8935) rotate(-90) scale(0.1 -0.1)">
      <defs>
       <path id="DejaVuSans-73" d="M 2834 3397 
L 2834 2853 
Q 2591 2978 2328 3040 
Q 2066 3103 1784 3103 
Q 1356 3103 1142 2972 
Q 928 2841 928 2578 
Q 928 2378 1081 2264 
Q 1234 2150 1697 2047 
L 1894 2003 
Q 2506 1872 2764 1633 
Q 3022 1394 3022 966 
Q 3022 478 2636 193 
Q 2250 -91 1575 -91 
Q 1294 -91 989 -36 
Q 684 19 347 128 
L 347 722 
Q 666 556 975 473 
Q 1284 391 1588 391 
Q 1994 391 2212 530 
Q 2431 669 2431 922 
Q 2431 1156 2273 1281 
Q 2116 1406 1581 1522 
L 1381 1569 
Q 847 1681 609 1914 
Q 372 2147 372 2553 
Q 372 3047 722 3315 
Q 1072 3584 1716 3584 
Q 2034 3584 2315 3537 
Q 2597 3491 2834 3397 
z
" transform="scale(0.015625)"/>
       <path id="DejaVuSans-68" d="M 3513 2113 
L 3513 0 
L 2938 0 
L 2938 2094 
Q 2938 2591 2744 2837 
Q 2550 3084 2163 3084 
Q 1697 3084 1428 2787 
Q 1159 2491 1159 1978 
L 1159 0 
L 581 0 
L 581 4863 
L 1159 4863 
L 1159 2956 
Q 1366 3272 1645 3428 
Q 1925 3584 2291 3584 
Q 2894 3584 3203 3211 
Q 3513 2838 3513 2113 
z
" transform="scale(0.015625)"/>
       <path id="DejaVuSans-69" d="M 603 3500 
L 1178 3500 
L 1178 0 
L 603 0 
L 603 3500 
z
M 603 4863 
L 1178 4863 
L 1178 4134 
L 603 4134 
L 603 4863 
z
" transform="scale(0.015625)"/>
       <path id="DejaVuSans-66" d="M 2375 4863 
L 2375 4384 
L 1825 4384 
Q 1516 4384 1395 4259 
Q 1275 4134 1275 3809 
L 1275 3500 
L 2222 3500 
L 2222 3053 
L 1275 3053 
L 1275 0 
L 697 0 
L 697 3053 
L 147 3053 
L 147 3500 
L 697 3500 
L 697 3744 
Q 697 4328 969 4595 
Q 1241 4863 1831 4863 
L 2375 4863 
z
" transform="scale(0.015625)"/>
       <path id="DejaVuSans-74" d="M 1172 4494 
L 1172 3500 
L 2356 3500 
L 2356 3053 
L 1172 3053 
L 1172 1153 
Q 1172 725 1289 603 
Q 1406 481 1766 481 
L 2356 481 
L 2356 0 
L 1766 0 
Q 1100 0 847 248 
Q 594 497 594 1153 
L 594 3053 
L 172 3053 
L 172 3500 
L 594 3500 
L 594 4494 
L 1172 4494 
z
" transform="scale(0.015625)"/>
       <path id="DejaVuSans-20" transform="scale(0.015625)"/>
       <path id="DejaVuSans-61" d="M 2194 1759 
Q 1497 1759 1228 1600 
Q 959 1441 959 1056 
Q 959 750 1161 570 
Q 1363 391 1709 391 
Q 2188 391 2477 730 
Q 2766 1069 2766 1631 
L 2766 1759 
L 2194 1759 
z
M 3341 1997 
L 3341 0 
L 2766 0 
L 2766 531 
Q 2569 213 2275 61 
Q 1981 -91 1556 -91 
Q 1019 -91 701 211 
Q 384 513 384 1019 
Q 384 1609 779 1909 
Q 1175 2209 1959 2209 
L 2766 2209 
L 2766 2266 
Q 2766 2663 2505 2880 
Q 2244 3097 1772 3097 
Q 1472 3097 1187 3025 
Q 903 2953 641 2809 
L 641 3341 
Q 956 3463 1253 3523 
Q 1550 3584 1831 3584 
Q 2591 3584 2966 3190 
Q 3341 2797 3341 1997 
z
" transform="scale(0.015625)"/>
       <path id="DejaVuSans-63" d="M 3122 3366 
L 3122 2828 
Q 2878 2963 2633 3030 
Q 2388 3097 2138 3097 
Q 1578 3097 1268 2742 
Q 959 2388 959 1747 
Q 959 1106 1268 751 
Q 1578 397 2138 397 
Q 2388 397 2633 464 
Q 2878 531 3122 666 
L 3122 134 
Q 2881 22 2623 -34 
Q 2366 -91 2075 -91 
Q 1284 -91 818 406 
Q 353 903 353 1747 
Q 353 2603 823 3093 
Q 1294 3584 2113 3584 
Q 2378 3584 2631 3529 
Q 2884 3475 3122 3366 
z
" transform="scale(0.015625)"/>
       <path id="DejaVuSans-6f" d="M 1959 3097 
Q 1497 3097 1228 2736 
Q 959 2375 959 1747 
Q 959 1119 1226 758 
Q 1494 397 1959 397 
Q 2419 397 2687 759 
Q 2956 1122 2956 1747 
Q 2956 2369 2687 2733 
Q 2419 3097 1959 3097 
z
M 1959 3584 
Q 2709 3584 3137 3096 
Q 3566 2609 3566 1747 
Q 3566 888 3137 398 
Q 2709 -91 1959 -91 
Q 1206 -91 779 398 
Q 353 888 353 1747 
Q 353 2609 779 3096 
Q 1206 3584 1959 3584 
z
" transform="scale(0.015625)"/>
       <path id="DejaVuSans-72" d="M 2631 2963 
Q 2534 3019 2420 3045 
Q 2306 3072 2169 3072 
Q 1681 3072 1420 2755 
Q 1159 2438 1159 1844 
L 1159 0 
L 581 0 
L 581 3500 
L 1159 3500 
L 1159 2956 
Q 1341 3275 1631 3429 
Q 1922 3584 2338 3584 
Q 2397 3584 2469 3576 
Q 2541 3569 2628 3553 
L 2631 2963 
z
" transform="scale(0.015625)"/>
      </defs>
      <use xlink:href="#DejaVuSans-73"/>
      <use xlink:href="#DejaVuSans-68" x="52.099609"/>
      <use xlink:href="#DejaVuSans-69" x="115.478516"/>
      <use xlink:href="#DejaVuSans-66" x="143.261719"/>
      <use xlink:href="#DejaVuSans-74" x="176.716797"/>
      <use xlink:href="#DejaVuSans-20" x="215.925781"/>
      <use xlink:href="#DejaVuSans-66" x="247.712891"/>
      <use xlink:href="#DejaVuSans-61" x="282.917969"/>
      <use xlink:href="#DejaVuSans-63" x="344.197266"/>
      <use xlink:href="#DejaVuSans-74" x="399.177734"/>
      <use xlink:href="#DejaVuSans-6f" x="438.386719"/>
      <use xlink:href="#DejaVuSans-72" x="499.568359"/>
      <use xlink:href="#DejaVuSans-73" x="540.681641"/>
     </g>
    </g>
   </g>
   <g id="LineCollection_1">
    <path d="M 66.376477 19.296 
L 66.376477 19.296 
" clip-path="url(#p50128999c6)" style="fill: none; stroke: #1f77b4; stroke-width: 1.5"/>
    <path d="M 120.485568 101.166377 
L 120.485568 89.646075 
" clip-path="url(#p50128999c6)" style="fill: none; stroke: #1f77b4; stroke-width: 1.5"/>
    <path d="M 174.594659 135.353599 
L 174.594659 121.518086 
" clip-path="url(#p50128999c6)" style="fill: none; stroke: #1f77b4; stroke-width: 1.5"/>
    <path d="M 228.70375 159.073468 
L 228.70375 144.31427 
" clip-path="url(#p50128999c6)" style="fill: none; stroke: #1f77b4; stroke-width: 1.5"/>
    <path d="M 282.812841 178.516618 
L 282.812841 163.619157 
" clip-path="url(#p50128999c6)" style="fill: none; stroke: #1f77b4; stroke-width: 1.5"/>
    <path d="M 336.921932 189.100297 
L 336.921932 173.49549 
" clip-path="url(#p50128999c6)" style="fill: none; stroke: #1f77b4; stroke-width: 1.5"/>
    <path d="M 391.031023 195.450936 
L 391.031023 178.790486 
" clip-path="url(#p50128999c6)" style="fill: none; stroke: #1f77b4; stroke-width: 1.5"/>
   </g>
   <g id="line2d_14">
    <path d="M 66.376477 88.870094 
L 120.485568 128.403689 
L 174.594659 141.113503 
L 228.70375 157.86423 
L 282.812841 160.491275 
L 336.921932 139.856351 
L 391.031023 140.514039 
" clip-path="url(#p50128999c6)" style="fill: none; stroke-dasharray: 5.55,2.4; stroke-dashoffset: 0; stroke: #ff7f0e; stroke-width: 1.5"/>
    <defs>
     <path id="mbc3dfe76fb" d="M -7.870361 -5.278846 
L -6.691948 -5.278846 
L -5.214315 -2.16658 
L -2.541645 -5.278846 
L -1.180375 -5.278846 
L -4.73039 -1.163636 
L -2.587821 3.339452 
L -3.760693 3.339452 
L -5.496912 -0.291833 
L -8.644271 3.339452 
L -10 3.339452 
L -5.971602 -1.294776 
L -7.870361 -5.278846 
z
M 0.003717 -0.753962 
L 0.824727 -0.753962 
L 0.343758 1.719411 
L 3.304566 1.719411 
L 3.785535 -0.753962 
L 4.606545 -0.753962 
L 3.42998 5.278846 
L 2.610263 5.278846 
L 3.171394 2.405957 
L 0.210586 2.405957 
L -0.351838 5.278846 
L -1.171556 5.278846 
L 0.003717 -0.753962 
z
M 6.225939 -0.753962 
L 8.311434 -0.753962 
Q 9.159596 -0.753962 9.579798 -0.438488 
Q 10 -0.123013 10 0.510522 
Q 10 1.092341 9.63798 1.515128 
Q 9.277253 1.937916 8.691556 2.025835 
Q 9.191919 2.139613 9.442747 2.458967 
Q 9.693576 2.77832 9.693576 3.311007 
Q 9.693576 4.219937 9.01996 4.750038 
Q 8.347636 5.278846 7.180121 5.278846 
L 5.050667 5.278846 
L 6.225939 -0.753962 
z
M 6.423758 2.398199 
L 5.995798 4.607815 
L 7.309414 4.607815 
Q 8.04897 4.607815 8.448485 4.269068 
Q 8.848 3.929027 8.848 3.311007 
Q 8.848 2.833916 8.582949 2.616704 
Q 8.319192 2.398199 7.733495 2.398199 
L 6.423758 2.398199 
z
M 6.904727 -0.082932 
L 6.549172 1.734926 
L 7.765818 1.734926 
Q 8.416162 1.734926 8.782061 1.453068 
Q 9.14796 1.169916 9.14796 0.66826 
Q 9.14796 0.276502 8.90101 0.096785 
Q 8.654061 -0.082932 8.113616 -0.082932 
L 6.904727 -0.082932 
z
" style="stroke: #ff7f0e"/>
    </defs>
    <g clip-path="url(#p50128999c6)">
     <use xlink:href="#mbc3dfe76fb" x="66.376477" y="88.870094" style="fill: #ff7f0e; stroke: #ff7f0e"/>
     <use xlink:href="#mbc3dfe76fb" x="120.485568" y="128.403689" style="fill: #ff7f0e; stroke: #ff7f0e"/>
     <use xlink:href="#mbc3dfe76fb" x="174.594659" y="141.113503" style="fill: #ff7f0e; stroke: #ff7f0e"/>
     <use xlink:href="#mbc3dfe76fb" x="228.70375" y="157.86423" style="fill: #ff7f0e; stroke: #ff7f0e"/>
     <use xlink:href="#mbc3dfe76fb" x="282.812841" y="160.491275" style="fill: #ff7f0e; stroke: #ff7f0e"/>
     <use xlink:href="#mbc3dfe76fb" x="336.921932" y="139.856351" style="fill: #ff7f0e; stroke: #ff7f0e"/>
     <use xlink:href="#mbc3dfe76fb" x="391.031023" y="140.514039" style="fill: #ff7f0e; stroke: #ff7f0e"/>
    </g>
   </g>
   <g id="LineCollection_2">
    <path d="M 66.376477 92.512771 
L 66.376477 92.512771 
" clip-path="url(#p50128999c6)" style="fill: none; stroke: #2ca02c; stroke-width: 1.5"/>
    <path d="M 120.485568 174.593912 
L 120.485568 156.802464 
" clip-path="url(#p50128999c6)" style="fill: none; stroke: #2ca02c; stroke-width: 1.5"/>
    <path d="M 174.594659 205.455164 
L 174.594659 186.718657 
" clip-path="url(#p50128999c6)" style="fill: none; stroke: #2ca02c; stroke-width: 1.5"/>
    <path d="M 228.70375 226.272877 
L 228.70375 208.885544 
" clip-path="url(#p50128999c6)" style="fill: none; stroke: #2ca02c; stroke-width: 1.5"/>
    <path d="M 282.812841 243.984275 
L 282.812841 229.644479 
" clip-path="url(#p50128999c6)" style="fill: none; stroke: #2ca02c; stroke-width: 1.5"/>
    <path d="M 336.921932 255.08061 
L 336.921932 243.149055 
" clip-path="url(#p50128999c6)" style="fill: none; stroke: #2ca02c; stroke-width: 1.5"/>
    <path d="M 391.031023 261.216 
L 391.031023 250.633918 
" clip-path="url(#p50128999c6)" style="fill: none; stroke: #2ca02c; stroke-width: 1.5"/>
   </g>
   <g id="line2d_15">
    <path d="M 66.376477 100.094936 
L 120.485568 168.63647 
L 174.594659 197.095227 
L 228.70375 218.022586 
L 282.812841 236.29184 
L 336.921932 247.595292 
L 391.031023 254.500077 
" clip-path="url(#p50128999c6)" style="fill: none; stroke-dasharray: 5.55,2.4; stroke-dashoffset: 0; stroke: #d62728; stroke-width: 1.5"/>
    <defs>
     <path id="mf66be47cbe" d="M -9.200248 -5.67169 
L -7.85476 -5.67169 
L -6.124279 -1.863442 
L -2.824062 -5.67169 
L -1.417054 -5.67169 
L -5.616248 -0.821581 
L -6.471566 3.587969 
L -7.723783 3.587969 
L -6.874419 -0.821581 
L -9.200248 -5.67169 
z
M -0.740192 -0.810071 
L 0.141916 -0.810071 
L -0.374847 1.847367 
L 2.806301 1.847367 
L 3.323064 -0.810071 
L 4.205172 -0.810071 
L 2.941048 5.67169 
L 2.060329 5.67169 
L 2.663219 2.585005 
L -0.517929 2.585005 
L -1.122208 5.67169 
L -2.002927 5.67169 
L -0.740192 -0.810071 
z
M 5.945079 -0.810071 
L 8.185774 -0.810071 
Q 9.097054 -0.810071 9.548527 -0.471119 
Q 10 -0.132167 10 0.548515 
Q 10 1.173631 9.611039 1.627882 
Q 9.223467 2.082133 8.594183 2.176595 
Q 9.131783 2.29884 9.401278 2.64196 
Q 9.670772 2.985079 9.670772 3.557408 
Q 9.670772 4.533978 8.947026 5.103529 
Q 8.22467 5.67169 6.97027 5.67169 
L 4.682344 5.67169 
L 5.945079 -0.810071 
z
M 6.157619 2.57667 
L 5.697811 4.950722 
L 7.109184 4.950722 
Q 7.903777 4.950722 8.333023 4.586766 
Q 8.76227 4.22142 8.76227 3.557408 
Q 8.76227 3.044812 8.477495 2.811436 
Q 8.194109 2.57667 7.564825 2.57667 
L 6.157619 2.57667 
z
M 6.674381 -0.089104 
L 6.292366 1.864037 
L 7.599553 1.864037 
Q 8.298295 1.864037 8.691423 1.561203 
Q 9.084552 1.25698 9.084552 0.717991 
Q 9.084552 0.297079 8.819225 0.103988 
Q 8.553898 -0.089104 7.973234 -0.089104 
L 6.674381 -0.089104 
z
" style="stroke: #d62728"/>
    </defs>
    <g clip-path="url(#p50128999c6)">
     <use xlink:href="#mf66be47cbe" x="66.376477" y="100.094936" style="fill: #d62728; stroke: #d62728"/>
     <use xlink:href="#mf66be47cbe" x="120.485568" y="168.63647" style="fill: #d62728; stroke: #d62728"/>
     <use xlink:href="#mf66be47cbe" x="174.594659" y="197.095227" style="fill: #d62728; stroke: #d62728"/>
     <use xlink:href="#mf66be47cbe" x="228.70375" y="218.022586" style="fill: #d62728; stroke: #d62728"/>
     <use xlink:href="#mf66be47cbe" x="282.812841" y="236.29184" style="fill: #d62728; stroke: #d62728"/>
     <use xlink:href="#mf66be47cbe" x="336.921932" y="247.595292" style="fill: #d62728; stroke: #d62728"/>
     <use xlink:href="#mf66be47cbe" x="391.031023" y="254.500077" style="fill: #d62728; stroke: #d62728"/>
    </g>
   </g>
   <g id="line2d_16">
    <path d="M 66.376477 19.296 
L 120.485568 95.406226 
L 174.594659 128.435842 
L 228.70375 151.693869 
L 282.812841 171.067887 
L 336.921932 181.297893 
L 391.031023 187.120711 
" clip-path="url(#p50128999c6)" style="fill: none; stroke-dasharray: 5.55,2.4; stroke-dashoffset: 0; stroke: #1f77b4; stroke-width: 1.5"/>
    <defs>
     <path id="m1c55df4ce7" d="M -7.855161 -5.316523 
L -6.668337 -5.316523 
L -5.180157 -2.182044 
L -2.488411 -5.316523 
L -1.117426 -5.316523 
L -4.692778 -1.171942 
L -2.534917 3.363287 
L -3.71616 3.363287 
L -5.464771 -0.293916 
L -8.634595 3.363287 
L -10 3.363287 
L -5.942849 -1.304018 
L -7.855161 -5.316523 
z
M 0.075118 -0.759344 
L 1.308261 -0.759344 
L 2.016635 3.334639 
L 4.368332 -0.759344 
L 5.634029 -0.759344 
L 4.450367 5.316523 
L 3.652145 5.316523 
L 4.686058 -0.010603 
L 2.301808 4.148488 
L 1.499679 4.148488 
L 0.726197 -0.026229 
L -0.306414 5.316523 
L -1.108543 5.316523 
L 0.075118 -0.759344 
z
M 7.257656 -0.759344 
L 8.083224 -0.759344 
L 7.041498 4.63289 
L 10 4.63289 
L 9.865878 5.316523 
L 6.081808 5.316523 
L 7.257656 -0.759344 
z
" style="stroke: #1f77b4"/>
    </defs>
    <g clip-path="url(#p50128999c6)">
     <use xlink:href="#m1c55df4ce7" x="66.376477" y="19.296" style="fill-opacity: 0; stroke: #1f77b4"/>
     <use xlink:href="#m1c55df4ce7" x="120.485568" y="95.406226" style="fill-opacity: 0; stroke: #1f77b4"/>
     <use xlink:href="#m1c55df4ce7" x="174.594659" y="128.435842" style="fill-opacity: 0; stroke: #1f77b4"/>
     <use xlink:href="#m1c55df4ce7" x="228.70375" y="151.693869" style="fill-opacity: 0; stroke: #1f77b4"/>
     <use xlink:href="#m1c55df4ce7" x="282.812841" y="171.067887" style="fill-opacity: 0; stroke: #1f77b4"/>
     <use xlink:href="#m1c55df4ce7" x="336.921932" y="181.297893" style="fill-opacity: 0; stroke: #1f77b4"/>
     <use xlink:href="#m1c55df4ce7" x="391.031023" y="187.120711" style="fill-opacity: 0; stroke: #1f77b4"/>
    </g>
   </g>
   <g id="line2d_17">
    <path d="M 66.376477 92.512771 
L 120.485568 165.698188 
L 174.594659 196.08691 
L 228.70375 217.57921 
L 282.812841 236.814377 
L 336.921932 249.114832 
L 391.031023 255.924959 
" clip-path="url(#p50128999c6)" style="fill: none; stroke-dasharray: 5.55,2.4; stroke-dashoffset: 0; stroke: #2ca02c; stroke-width: 1.5"/>
    <defs>
     <path id="ma20264b447" d="M -9.194112 -5.715207 
L -7.8383 -5.715207 
L -6.094542 -1.877739 
L -2.769003 -5.715207 
L -1.3512 -5.715207 
L -5.582613 -0.827885 
L -6.444493 3.615498 
L -7.706318 3.615498 
L -6.850437 -0.827885 
L -9.194112 -5.715207 
z
M -0.669145 -0.816287 
L 0.656471 -0.816287 
L 1.417966 3.584703 
L 3.946015 -0.816287 
L 5.306626 -0.816287 
L 4.034203 5.715207 
L 3.176122 5.715207 
L 4.287568 -0.011398 
L 1.724523 4.459581 
L 0.862243 4.459581 
L 0.030758 -0.028196 
L -1.079288 5.715207 
L -1.941568 5.715207 
L -0.669145 -0.816287 
z
M 7.052009 -0.816287 
L 7.939486 -0.816287 
L 6.819641 4.980309 
L 10 4.980309 
L 9.85582 5.715207 
L 5.787984 5.715207 
L 7.052009 -0.816287 
z
" style="stroke: #2ca02c"/>
    </defs>
    <g clip-path="url(#p50128999c6)">
     <use xlink:href="#ma20264b447" x="66.376477" y="92.512771" style="fill-opacity: 0; stroke: #2ca02c"/>
     <use xlink:href="#ma20264b447" x="120.485568" y="165.698188" style="fill-opacity: 0; stroke: #2ca02c"/>
     <use xlink:href="#ma20264b447" x="174.594659" y="196.08691" style="fill-opacity: 0; stroke: #2ca02c"/>
     <use xlink:href="#ma20264b447" x="228.70375" y="217.57921" style="fill-opacity: 0; stroke: #2ca02c"/>
     <use xlink:href="#ma20264b447" x="282.812841" y="236.814377" style="fill-opacity: 0; stroke: #2ca02c"/>
     <use xlink:href="#ma20264b447" x="336.921932" y="249.114832" style="fill-opacity: 0; stroke: #2ca02c"/>
     <use xlink:href="#ma20264b447" x="391.031023" y="255.924959" style="fill-opacity: 0; stroke: #2ca02c"/>
    </g>
   </g>
   <g id="patch_3">
    <path d="M 50.14375 273.312 
L 50.14375 7.2 
" style="fill: none; stroke: #000000; stroke-width: 0.8; stroke-linejoin: miter; stroke-linecap: square"/>
   </g>
   <g id="patch_4">
    <path d="M 407.26375 273.312 
L 407.26375 7.2 
" style="fill: none; stroke: #000000; stroke-width: 0.8; stroke-linejoin: miter; stroke-linecap: square"/>
   </g>
   <g id="patch_5">
    <path d="M 50.14375 273.312 
L 407.26375 273.312 
" style="fill: none; stroke: #000000; stroke-width: 0.8; stroke-linejoin: miter; stroke-linecap: square"/>
   </g>
   <g id="patch_6">
    <path d="M 50.14375 7.2 
L 407.26375 7.2 
" style="fill: none; stroke: #000000; stroke-width: 0.8; stroke-linejoin: miter; stroke-linecap: square"/>
   </g>
   <g id="legend_1">
    <g id="patch_7">
     <path d="M 337.46625 60.57 
L 401.66375 60.57 
Q 403.26375 60.57 403.26375 58.97 
L 403.26375 12.8 
Q 403.26375 11.2 401.66375 11.2 
L 337.46625 11.2 
Q 335.86625 11.2 335.86625 12.8 
L 335.86625 58.97 
Q 335.86625 60.57 337.46625 60.57 
z
" style="fill: #ffffff; opacity: 0.8; stroke: #cccccc; stroke-linejoin: miter"/>
    </g>
    <g id="line2d_18">
     <path d="M 339.06625 17.67875 
L 347.06625 17.67875 
L 355.06625 17.67875 
" style="fill: none; stroke-dasharray: 5.55,2.4; stroke-dashoffset: 0; stroke: #ff7f0e; stroke-width: 1.5"/>
     <g>
      <use xlink:href="#mbc3dfe76fb" x="347.06625" y="17.67875" style="fill: #ff7f0e; stroke: #ff7f0e"/>
     </g>
    </g>
    <g id="text_16">
     <!-- x shift HB -->
     <g transform="translate(361.46625 20.47875) scale(0.08 -0.08)">
      <defs>
       <path id="DejaVuSans-78" d="M 3513 3500 
L 2247 1797 
L 3578 0 
L 2900 0 
L 1881 1375 
L 863 0 
L 184 0 
L 1544 1831 
L 300 3500 
L 978 3500 
L 1906 2253 
L 2834 3500 
L 3513 3500 
z
" transform="scale(0.015625)"/>
       <path id="DejaVuSans-48" d="M 628 4666 
L 1259 4666 
L 1259 2753 
L 3553 2753 
L 3553 4666 
L 4184 4666 
L 4184 0 
L 3553 0 
L 3553 2222 
L 1259 2222 
L 1259 0 
L 628 0 
L 628 4666 
z
" transform="scale(0.015625)"/>
       <path id="DejaVuSans-42" d="M 1259 2228 
L 1259 519 
L 2272 519 
Q 2781 519 3026 730 
Q 3272 941 3272 1375 
Q 3272 1813 3026 2020 
Q 2781 2228 2272 2228 
L 1259 2228 
z
M 1259 4147 
L 1259 2741 
L 2194 2741 
Q 2656 2741 2882 2914 
Q 3109 3088 3109 3444 
Q 3109 3797 2882 3972 
Q 2656 4147 2194 4147 
L 1259 4147 
z
M 628 4666 
L 2241 4666 
Q 2963 4666 3353 4366 
Q 3744 4066 3744 3513 
Q 3744 3084 3544 2831 
Q 3344 2578 2956 2516 
Q 3422 2416 3680 2098 
Q 3938 1781 3938 1306 
Q 3938 681 3513 340 
Q 3088 0 2303 0 
L 628 0 
L 628 4666 
z
" transform="scale(0.015625)"/>
      </defs>
      <use xlink:href="#DejaVuSans-78"/>
      <use xlink:href="#DejaVuSans-20" x="59.179688"/>
      <use xlink:href="#DejaVuSans-73" x="90.966797"/>
      <use xlink:href="#DejaVuSans-68" x="143.066406"/>
      <use xlink:href="#DejaVuSans-69" x="206.445312"/>
      <use xlink:href="#DejaVuSans-66" x="234.228516"/>
      <use xlink:href="#DejaVuSans-74" x="267.683594"/>
      <use xlink:href="#DejaVuSans-20" x="306.892578"/>
      <use xlink:href="#DejaVuSans-48" x="338.679688"/>
      <use xlink:href="#DejaVuSans-42" x="413.875"/>
     </g>
    </g>
    <g id="line2d_19">
     <path d="M 339.06625 29.42125 
L 347.06625 29.42125 
L 355.06625 29.42125 
" style="fill: none; stroke-dasharray: 5.55,2.4; stroke-dashoffset: 0; stroke: #d62728; stroke-width: 1.5"/>
     <g>
      <use xlink:href="#mf66be47cbe" x="347.06625" y="29.42125" style="fill: #d62728; stroke: #d62728"/>
     </g>
    </g>
    <g id="text_17">
     <!-- y shift HB -->
     <g transform="translate(361.46625 32.22125) scale(0.08 -0.08)">
      <defs>
       <path id="DejaVuSans-79" d="M 2059 -325 
Q 1816 -950 1584 -1140 
Q 1353 -1331 966 -1331 
L 506 -1331 
L 506 -850 
L 844 -850 
Q 1081 -850 1212 -737 
Q 1344 -625 1503 -206 
L 1606 56 
L 191 3500 
L 800 3500 
L 1894 763 
L 2988 3500 
L 3597 3500 
L 2059 -325 
z
" transform="scale(0.015625)"/>
      </defs>
      <use xlink:href="#DejaVuSans-79"/>
      <use xlink:href="#DejaVuSans-20" x="59.179688"/>
      <use xlink:href="#DejaVuSans-73" x="90.966797"/>
      <use xlink:href="#DejaVuSans-68" x="143.066406"/>
      <use xlink:href="#DejaVuSans-69" x="206.445312"/>
      <use xlink:href="#DejaVuSans-66" x="234.228516"/>
      <use xlink:href="#DejaVuSans-74" x="267.683594"/>
      <use xlink:href="#DejaVuSans-20" x="306.892578"/>
      <use xlink:href="#DejaVuSans-48" x="338.679688"/>
      <use xlink:href="#DejaVuSans-42" x="413.875"/>
     </g>
    </g>
    <g id="LineCollection_3">
     <path d="M 347.06625 45.16375 
L 347.06625 37.16375 
" style="fill: none; stroke: #1f77b4; stroke-width: 1.5"/>
    </g>
    <g id="line2d_20">
     <path d="M 339.06625 41.16375 
L 355.06625 41.16375 
" style="fill: none; stroke-dasharray: 5.55,2.4; stroke-dashoffset: 0; stroke: #1f77b4; stroke-width: 1.5"/>
    </g>
    <g id="line2d_21">
     <g>
      <use xlink:href="#m1c55df4ce7" x="347.06625" y="41.16375" style="fill-opacity: 0; stroke: #1f77b4"/>
     </g>
    </g>
    <g id="text_18">
     <!-- x shift ML -->
     <g transform="translate(361.46625 43.96375) scale(0.08 -0.08)">
      <defs>
       <path id="DejaVuSans-4d" d="M 628 4666 
L 1569 4666 
L 2759 1491 
L 3956 4666 
L 4897 4666 
L 4897 0 
L 4281 0 
L 4281 4097 
L 3078 897 
L 2444 897 
L 1241 4097 
L 1241 0 
L 628 0 
L 628 4666 
z
" transform="scale(0.015625)"/>
       <path id="DejaVuSans-4c" d="M 628 4666 
L 1259 4666 
L 1259 531 
L 3531 531 
L 3531 0 
L 628 0 
L 628 4666 
z
" transform="scale(0.015625)"/>
      </defs>
      <use xlink:href="#DejaVuSans-78"/>
      <use xlink:href="#DejaVuSans-20" x="59.179688"/>
      <use xlink:href="#DejaVuSans-73" x="90.966797"/>
      <use xlink:href="#DejaVuSans-68" x="143.066406"/>
      <use xlink:href="#DejaVuSans-69" x="206.445312"/>
      <use xlink:href="#DejaVuSans-66" x="234.228516"/>
      <use xlink:href="#DejaVuSans-74" x="267.683594"/>
      <use xlink:href="#DejaVuSans-20" x="306.892578"/>
      <use xlink:href="#DejaVuSans-4d" x="338.679688"/>
      <use xlink:href="#DejaVuSans-4c" x="424.958984"/>
     </g>
    </g>
    <g id="LineCollection_4">
     <path d="M 347.06625 56.90625 
L 347.06625 48.90625 
" style="fill: none; stroke: #2ca02c; stroke-width: 1.5"/>
    </g>
    <g id="line2d_22">
     <path d="M 339.06625 52.90625 
L 355.06625 52.90625 
" style="fill: none; stroke-dasharray: 5.55,2.4; stroke-dashoffset: 0; stroke: #2ca02c; stroke-width: 1.5"/>
    </g>
    <g id="line2d_23">
     <g>
      <use xlink:href="#ma20264b447" x="347.06625" y="52.90625" style="fill-opacity: 0; stroke: #2ca02c"/>
     </g>
    </g>
    <g id="text_19">
     <!-- y shift ML -->
     <g transform="translate(361.46625 55.70625) scale(0.08 -0.08)">
      <use xlink:href="#DejaVuSans-79"/>
      <use xlink:href="#DejaVuSans-20" x="59.179688"/>
      <use xlink:href="#DejaVuSans-73" x="90.966797"/>
      <use xlink:href="#DejaVuSans-68" x="143.066406"/>
      <use xlink:href="#DejaVuSans-69" x="206.445312"/>
      <use xlink:href="#DejaVuSans-66" x="234.228516"/>
      <use xlink:href="#DejaVuSans-74" x="267.683594"/>
      <use xlink:href="#DejaVuSans-20" x="306.892578"/>
      <use xlink:href="#DejaVuSans-4d" x="338.679688"/>
      <use xlink:href="#DejaVuSans-4c" x="424.958984"/>
     </g>
    </g>
   </g>
  </g>
 </g>
 <defs>
  <clipPath id="p50128999c6">
   <rect x="50.14375" y="7.2" width="357.12" height="266.112"/>
  </clipPath>
 </defs>
</svg>
